<svg xmlns="http://www.w3.org/2000/svg" shape-rendering="geometricPrecision" text-rendering="geometricPrecision" image-rendering="optimizeQuality" fill-rule="evenodd" clip-rule="evenodd" viewBox="0 0 512 512"><path fill-rule="nonzero" d="M256 0c70.692 0 134.691 28.652 181.018 74.982C483.348 121.309 512 185.308 512 256c0 70.692-28.652 134.691-74.982 181.018C390.691 483.348 326.692 512 256 512c-70.692 0-134.691-28.652-181.018-74.982C28.652 390.691 0 326.692 0 256c0-70.692 28.652-134.691 74.982-181.018C121.309 28.652 185.308 0 256 0zm47.086 218.243l-47.073 47.087 47.08 47.089-47.083 47.093-47.096-47.093 47.092-47.089-47.092-47.093 47.096-47.074 47.079 47.074 47.09-47.077 47.083 47.083-47.083 47.093-47.093-47.093zm-94.169 0l-47.093 47.093-47.086-47.093 47.086-47.083 47.093 47.083zM419.781 92.219C377.869 50.305 319.963 24.382 256 24.382c-63.96 0-121.866 25.923-163.777 67.837C50.308 134.131 24.385 192.037 24.385 256c0 63.96 25.923 121.866 67.838 163.777 41.911 41.915 99.817 67.838 163.777 67.838 63.963 0 121.869-25.923 163.781-67.838 41.914-41.911 67.837-99.817 67.837-163.777 0-63.963-25.923-121.869-67.837-163.781z"/></svg>